<svg xmlns="http://www.w3.org/2000/svg" viewBox="0 0 433 418" width="433" height="418">
  <defs>
    <linearGradient id="bg" x1="70" y1="60" x2="373" y2="358" gradientUnits="userSpaceOnUse">
      <stop offset="0" stop-color="#B9E9FF"/>
      <stop offset="0.55" stop-color="#7FAAFF"/>
      <stop offset="1" stop-color="#B89BFF"/>
    </linearGradient>
    <radialGradient id="hi" cx="0" cy="0" r="1" gradientUnits="userSpaceOnUse"
      gradientTransform="translate(138.6 108.7) rotate(35) scale(238.2 209.0)">
      <stop offset="0" stop-color="#FFFFFF" stop-opacity="0.55"/>
      <stop offset="0.55" stop-color="#FFFFFF" stop-opacity="0.14"/>
      <stop offset="1" stop-color="#FFFFFF" stop-opacity="0"/>
    </radialGradient>
    <filter id="innerShadow" x="-25%" y="-25%" width="150%" height="150%">
      <feOffset dx="0" dy="3" in="SourceAlpha" result="off"/>
      <feGaussianBlur in="off" stdDeviation="5" result="blur"/>
      <feComposite in="blur" in2="SourceAlpha" operator="arithmetic" k2="-1" k3="1" result="inner"/>
      <feColorMatrix in="inner" type="matrix"
        values="0 0 0 0 0.14
                0 0 0 0 0.16
                0 0 0 0 0.28
                0 0 0 0.45 0" result="shadowColor"/>
      <feComposite in="shadowColor" in2="SourceGraphic" operator="over"/>
    </filter>
  </defs>

  <!-- base with cutouts (evenodd) -->
  <path d="M 212 14 L 187 19 L 164 32 L 143 51 L 74 120 L 69 122 L 59 132 L 56 133 L 27 162 L 21 172 L 15 191 L 15 219 L 22 240 L 33 258 L 55 279 L 59 281 L 94 317 L 115 336 L 129 351 L 132 352 L 148 370 L 152 372 L 161 381 L 179 393 L 194 399 L 208 402 L 233 402 L 259 395 L 276 385 L 312 352 L 353 311 L 357 305 L 368 296 L 395 269 L 407 255 L 414 243 L 417 241 L 416 239 L 418 237 L 421 225 L 423 223 L 424 207 L 423 190 L 418 177 L 414 171 L 414 168 L 409 161 L 364 115 L 339 92 L 293 43 L 290 42 L 277 30 L 259 21 L 247 17 L 230 14 Z M 171 313 L 175 309 L 207 309 L 211 305 L 212 300 L 214 299 L 215 302 L 218 298 L 220 306 L 224 309 L 253 309 L 264 313 L 265 319 L 261 324 L 180 324 L 174 322 L 171 319 Z M 350 186 L 356 195 L 356 210 L 351 216 L 345 217 L 343 211 L 344 190 L 346 186 Z M 86 184 L 89 184 L 94 191 L 94 208 L 92 214 L 88 217 L 82 209 L 81 200 L 82 187 Z M 321 173 L 323 173 L 326 176 L 329 184 L 329 224 L 327 228 L 318 228 L 316 226 L 316 178 Z M 115 168 L 120 173 L 121 231 L 117 237 L 115 237 L 109 229 L 107 208 L 107 184 L 109 181 L 109 175 L 114 171 L 113 170 Z M 141 139 L 150 138 L 153 142 L 153 218 L 160 239 L 165 247 L 183 263 L 193 268 L 197 268 L 199 270 L 207 270 L 211 272 L 235 270 L 243 266 L 246 266 L 256 261 L 265 254 L 275 242 L 275 239 L 277 238 L 282 228 L 282 223 L 284 220 L 284 146 L 288 140 L 294 140 L 297 143 L 299 149 L 299 226 L 297 229 L 297 236 L 295 238 L 294 244 L 286 258 L 276 269 L 267 276 L 251 282 L 247 285 L 243 285 L 240 287 L 236 287 L 234 289 L 224 291 L 220 294 L 218 298 L 215 294 L 213 297 L 212 293 L 209 290 L 201 287 L 194 287 L 192 285 L 188 285 L 170 276 L 154 262 L 150 257 L 150 254 L 145 249 L 139 231 L 138 154 Z M 209 93 L 228 93 L 246 100 L 258 112 L 263 122 L 263 128 L 265 131 L 265 202 L 263 216 L 260 220 L 261 222 L 258 224 L 258 227 L 251 236 L 244 242 L 233 248 L 223 250 L 212 250 L 202 248 L 190 242 L 182 234 L 177 226 L 175 216 L 173 214 L 174 200 L 204 200 L 207 199 L 210 194 L 209 183 L 205 180 L 173 179 L 173 166 L 176 163 L 209 163 L 211 160 L 211 148 L 208 144 L 173 143 L 173 130 L 175 127 L 175 123 L 184 107 L 194 99 Z" fill="url(#bg)" fill-rule="evenodd" filter="url(#innerShadow)"/>
  <!-- highlight -->
  <path d="M 212 14 L 187 19 L 164 32 L 143 51 L 74 120 L 69 122 L 59 132 L 56 133 L 27 162 L 21 172 L 15 191 L 15 219 L 22 240 L 33 258 L 55 279 L 59 281 L 94 317 L 115 336 L 129 351 L 132 352 L 148 370 L 152 372 L 161 381 L 179 393 L 194 399 L 208 402 L 233 402 L 259 395 L 276 385 L 312 352 L 353 311 L 357 305 L 368 296 L 395 269 L 407 255 L 414 243 L 417 241 L 416 239 L 418 237 L 421 225 L 423 223 L 424 207 L 423 190 L 418 177 L 414 171 L 414 168 L 409 161 L 364 115 L 339 92 L 293 43 L 290 42 L 277 30 L 259 21 L 247 17 L 230 14 Z" fill="url(#hi)" opacity="0.9"/>
  <!-- subtle border -->
  <path d="M 212 14 L 187 19 L 164 32 L 143 51 L 74 120 L 69 122 L 59 132 L 56 133 L 27 162 L 21 172 L 15 191 L 15 219 L 22 240 L 33 258 L 55 279 L 59 281 L 94 317 L 115 336 L 129 351 L 132 352 L 148 370 L 152 372 L 161 381 L 179 393 L 194 399 L 208 402 L 233 402 L 259 395 L 276 385 L 312 352 L 353 311 L 357 305 L 368 296 L 395 269 L 407 255 L 414 243 L 417 241 L 416 239 L 418 237 L 421 225 L 423 223 L 424 207 L 423 190 L 418 177 L 414 171 L 414 168 L 409 161 L 364 115 L 339 92 L 293 43 L 290 42 L 277 30 L 259 21 L 247 17 L 230 14 Z" fill="none" stroke="rgba(255,255,255,0.35)" stroke-width="4"/>
  <path d="M 212 14 L 187 19 L 164 32 L 143 51 L 74 120 L 69 122 L 59 132 L 56 133 L 27 162 L 21 172 L 15 191 L 15 219 L 22 240 L 33 258 L 55 279 L 59 281 L 94 317 L 115 336 L 129 351 L 132 352 L 148 370 L 152 372 L 161 381 L 179 393 L 194 399 L 208 402 L 233 402 L 259 395 L 276 385 L 312 352 L 353 311 L 357 305 L 368 296 L 395 269 L 407 255 L 414 243 L 417 241 L 416 239 L 418 237 L 421 225 L 423 223 L 424 207 L 423 190 L 418 177 L 414 171 L 414 168 L 409 161 L 364 115 L 339 92 L 293 43 L 290 42 L 277 30 L 259 21 L 247 17 L 230 14 Z" fill="none" stroke="rgba(255,255,255,0.16)" stroke-width="2"/>
</svg>
